<svg xmlns="http://www.w3.org/2000/svg" width="430" height="430" style="width:100%;height:100%;transform:translate3d(0,0,0);content-visibility:visible" viewBox="0 0 430 430"><defs><filter id="a" width="100%" height="100%" x="0%" y="0%" filterUnits="objectBoundingBox"><feComponentTransfer in="SourceGraphic"><feFuncA tableValues="1.0 0.0" type="table"/></feComponentTransfer></filter><filter id="c" width="100%" height="100%" x="0%" y="0%" filterUnits="objectBoundingBox"><feComponentTransfer in="SourceGraphic"><feFuncA tableValues="1.0 0.0" type="table"/></feComponentTransfer></filter><filter id="e" width="100%" height="100%" x="0%" y="0%" filterUnits="objectBoundingBox"><feComponentTransfer in="SourceGraphic"><feFuncA tableValues="1.0 0.0" type="table"/></feComponentTransfer></filter><filter id="g" width="100%" height="100%" x="0%" y="0%" filterUnits="objectBoundingBox"><feComponentTransfer in="SourceGraphic"><feFuncA tableValues="1.0 0.0" type="table"/></feComponentTransfer></filter><filter id="i" width="100%" height="100%" x="0%" y="0%" filterUnits="objectBoundingBox"><feComponentTransfer in="SourceGraphic"><feFuncA tableValues="1.0 0.0" type="table"/></feComponentTransfer></filter><mask id="r" mask-type="alpha"><g filter="url(#a)"><path fill="#fff" d="M0 0h430v430H0z" opacity="0"/><use xmlns:ns1="http://www.w3.org/1999/xlink" ns1:href="#b"/></g></mask><mask id="q" mask-type="alpha"><g filter="url(#c)"><path fill="#fff" d="M0 0h430v430H0z" opacity="0"/><use xmlns:ns2="http://www.w3.org/1999/xlink" ns2:href="#d"/></g></mask><mask id="o" mask-type="alpha"><g filter="url(#e)"><path fill="#fff" d="M0 0h430v430H0z" opacity="0"/><use xmlns:ns3="http://www.w3.org/1999/xlink" ns3:href="#f"/></g></mask><mask id="n" mask-type="alpha"><g filter="url(#g)"><path fill="#fff" d="M0 0h430v430H0z" opacity="0"/><use xmlns:ns4="http://www.w3.org/1999/xlink" ns4:href="#h"/></g></mask><mask id="m" mask-type="alpha"><g filter="url(#i)"><path fill="#fff" d="M0 0h430v430H0z" opacity="0"/><use xmlns:ns5="http://www.w3.org/1999/xlink" ns5:href="#j"/></g></mask><clipPath id="k"><path d="M0 0h430v430H0z"/></clipPath><clipPath id="p"><path d="M0 0h430v430H0z"/></clipPath><clipPath id="l"><path d="M0 0h430v430H0z"/></clipPath><path id="d" style="display:none"/><path id="b" class="quaternary" style="display:none"/><path id="f" fill="red" d="M-1.94-157h3.88c33.734 0 60.747 27.969 59.574 61.682l-1.94 55.781C58.458-7.442 32.115 18 0 18S-58.458-7.442-59.574-39.537l-1.94-55.781C-62.687-129.031-35.674-157-1.94-157" style="display:block" transform="translate(215 215)"/><g id="h" style="display:block"><path fill="red" d="M248.88 241.69h7.62c45.84 0 83 37.16 83 83v27.76c0 7.62-5.71 14.03-13.28 14.9l-29.04 3.36a85.3 85.3 0 0 0-23.07 6.03c-18.91 7.91-39 11.88-59.11 11.92h-.3c-20.1 0-40.2-3.93-59.12-11.8l-.2-.08c-7.69-3.2-15.79-5.3-24.07-6.26l-27.53-3.17c-7.57-.87-13.28-7.28-13.28-14.9v-27.76c0-18.633-19.86-70.083-9.493-83.935 6.332-8.46 36.243.245 49.291 13.051 11.452-6.056 27.376-12.116 43.202-12.116h7.63"/><path fill-opacity="0" stroke="#121331" stroke-linecap="round" stroke-linejoin="round" stroke-width="0" d="M248.88 241.69h7.62c45.84 0 83 37.16 83 83v27.76c0 7.62-5.71 14.03-13.28 14.9l-29.04 3.36a85.3 85.3 0 0 0-23.07 6.03c-18.91 7.91-39 11.88-59.11 11.92h-.3c-20.1 0-40.2-3.93-59.12-11.8l-.2-.08c-7.69-3.2-15.79-5.3-24.07-6.26l-27.53-3.17c-7.57-.87-13.28-7.28-13.28-14.9v-27.76c0-18.633-19.86-70.083-9.493-83.935 6.332-8.46 36.243.245 49.291 13.051 11.452-6.056 27.376-12.116 43.202-12.116h7.63" class="primary"/></g><g id="j" style="display:block"><path fill="#AD6836" d="M142.36 265.68c-.13-38.79.51-99.33 5.36-124.59C155.99 98.03 176.627 57 230.056 57c53.317 0 74.064 41.03 82.334 84.09 4.86 25.28 5.5 85.88 5.36 124.67"/><path fill-opacity="0" stroke="#121331" stroke-linecap="round" stroke-linejoin="round" stroke-width="0" d="M142.36 265.68c-.13-38.79.51-99.33 5.36-124.59C155.99 98.03 176.627 57 230.056 57c53.317 0 74.064 41.03 82.334 84.09 4.86 25.28 5.5 85.88 5.36 124.67"/></g></defs><g clip-path="url(#k)"><g clip-path="url(#l)" style="display:block"><g style="display:block"><path fill="#B26836" d="M127.36 255.68c-.13-38.79.51-99.33 5.36-124.59C140.99 88.03 161.627 47 215.056 47c53.317 0 74.064 41.03 82.334 84.09 4.86 25.28 5.5 85.88 5.36 124.67" class="secondary"/><path fill="none" d="M127.36 255.68c-.13-38.79.51-99.33 5.36-124.59C140.99 88.03 161.627 47 215.056 47c53.317 0 74.064 41.03 82.334 84.09 4.86 25.28 5.5 85.88 5.36 124.67" class="primary"/></g><g mask="url(#m)" opacity=".5" style="mix-blend-mode:multiply;display:block"><path fill="#B26836" d="M127.36 255.68c-.13-38.79.51-99.33 5.36-124.59C140.99 88.03 161.627 47 215.056 47c53.317 0 74.064 41.03 82.334 84.09 4.86 25.28 5.5 85.88 5.36 124.67" class="secondary"/><path fill="none" d="M127.36 255.68c-.13-38.79.51-99.33 5.36-124.59C140.99 88.03 161.627 47 215.056 47c53.317 0 74.064 41.03 82.334 84.09 4.86 25.28 5.5 85.88 5.36 124.67" class="primary" opacity="1"/></g><g fill="#2CA58D" style="display:block"><path d="M181.201 241.86h-7.64c-11.53 0-22.52 2.35-32.5 6.6a84 84 0 0 0-13.64 7.39c-22.23 14.9-36.86 40.24-36.86 69.01v27.76c0 7.62 5.71 14.03 13.28 14.9l27.53 3.17c8.28.96 16.38 3.06 24.07 6.26l.2.08c18.92 7.87 39.02 11.8 59.12 11.8h.3c20.11-.04 40.2-4.01 59.11-11.92a85.3 85.3 0 0 1 23.07-6.03l29.04-3.36c7.57-.87 13.28-7.28 13.28-14.9v-27.76c0-28.72-14.59-54.03-36.75-68.93-4.3-2.89-8.88-5.39-13.69-7.44-10-4.27-21-6.63-32.56-6.63z" class="quinary"/><path d="m46.035-56.91-.73.18c-28.16 7.12-54.92 25.71-62.64 38.81-9.48 16.09-7.43 81.21-7.43 81.21l-7.99-.92a14.99 14.99 0 0 1-13.28-14.9V19.71c0-22.52 8.96-42.93 23.51-57.89.35-.35.7-.71 1.05-1.05.32-.32.63-.62.95-.94.4-.37.8-.75 1.21-1.13.35-.32.7-.64 1.06-.96.04-.04.08-.07.12-.11.72-.63 1.44-1.26 2.18-1.87a96 96 0 0 1 3.52-2.76c.8-.6 1.62-1.18 2.44-1.74.41-.28.82-.56 1.24-.84.83-.55 1.67-1.08 2.52-1.6.43-.26.86-.52 1.29-.77.52-.3 1.04-.6 1.56-.89.35-.2.7-.39 1.06-.58.17-.1.35-.19.53-.28.31-.18.63-.34.95-.5.65-.34 1.31-.66 1.97-.98.42-.2.84-.4 1.26-.59.39-.18.78-.35 1.17-.53.3-.13.61-.26.91-.39 1.87-.8 3.78-1.53 5.72-2.19 8.4-2.86 17.41-4.41 26.78-4.41h7.61v.03l.02.1z" class="quinary" opacity=".5" style="mix-blend-mode:multiply" transform="translate(136.69 305.15)"/></g><g opacity="0" style="display:block"><path fill="none" d="M248.88 241.69h7.62c45.84 0 83 37.16 83 83v27.76c0 7.62-5.71 14.03-13.28 14.9l-29.04 3.36a85.3 85.3 0 0 0-23.07 6.03c-18.91 7.91-39 11.88-59.11 11.92h-.3c-20.1 0-40.2-3.93-59.12-11.8l-.2-.08c-7.69-3.2-15.79-5.3-24.07-6.26l-27.53-3.17c-7.57-.87-13.28-7.28-13.28-14.9v-27.76c0-45.84 37.16-83 83-83h7.63" class="primary" opacity="1"/></g><g style="display:block"><path fill="#F9C9C0" d="M248.87 221.345v18.94c0 18.63-33.89 48.466-33.89 48.466s-33.86-29.836-33.86-48.466v-18.93" class="quaternary"/><path fill="none" d="M248.87 221.345v18.94c0 18.63-33.89 48.466-33.89 48.466s-33.86-29.836-33.86-48.466v-18.93" class="primary"/></g><g opacity=".5" style="mix-blend-mode:multiply;display:block"><path fill="#F9C9C0" d="M33.875-12.905s-13.5 21.7-47.74 22.93c-6.36.23-12.87 1.25-19.3 2.88-.09-.43-.18-.87-.25-1.31-.03-.19-.06-.39-.09-.59-.05-.3-.09-.6-.12-.91-.16-1.23-.24-2.48-.25-3.75l.098-47.49c9.63 6.66 55.31-6.2 67.87-6.2-.315 9.463-.066 19.213-.218 34.44" class="quaternary" opacity="1" style="mix-blend-mode:multiply" transform="translate(214.973 235.914)"/></g><g style="display:block"><path fill="#F9C9C0" d="m275.904 143.419-1.33 32.044C273.458 207.558 247.115 233 215 233s-58.458-25.442-59.574-57.537l-1.07-33.812M213.06 58h3.88c33.734 0 60.747 27.969 59.574 61.682l-1.94 55.781C273.458 207.558 247.115 233 215 233s-58.458-25.442-59.574-57.537l-1.94-55.781C152.313 85.969 179.326 58 213.06 58" class="quaternary"/><path fill="none" d="m275.904 143.419-1.33 32.044C273.458 207.558 247.115 233 215 233s-58.458-25.442-59.574-57.537l-1.07-33.812M213.06 58h3.88c33.734 0 60.747 27.969 59.574 61.682l-1.94 55.781C273.458 207.558 247.115 233 215 233s-58.458-25.442-59.574-57.537l-1.94-55.781C152.313 85.969 179.326 58 213.06 58" class="primary"/></g><g fill="#4BB3FD" style="display:block"><path d="M274.153 179.296c-1.61 18.15-11.32 33.89-25.44 43.69a59.4 59.4 0 0 1-33.92 10.58 59.45 59.45 0 0 1-33.83-10.51 61 61 0 0 1-7.58-6.22c-10.03-9.68-16.68-22.86-17.96-37.62l23.22 3.3a239.4 239.4 0 0 0 72.3 0z" class="tertiary"/><path d="M41.045 22.685c-7.01 2.9-14.68 4.49-22.72 4.49a59.45 59.45 0 0 1-33.83-10.51 61 61 0 0 1-7.58-6.22c-10.03-9.68-16.68-22.86-17.96-37.62 0 0 20.25 54.84 82.09 49.86" class="tertiary" opacity=".5" style="mix-blend-mode:multiply" transform="translate(196.468 206.391)"/></g><path fill="none" d="M-82.175 29.505c5.46-.35 72.29-10.651 108.17-59.01 22.25 15.85 36.703 56.064 36.703 56.064 9.258-2.945 16.67-12.513 19.477-21.814" class="primary" style="display:block" transform="translate(212.885 116.145)"/><path fill="#B26836" d="M62.525 46.375s-3.61-10.05-10.01-22.09c-6.39-12.03-15.57-26.05-26.69-33.97-11.62 27.29-49.83 43.67-84.65 54.41-.28.09-.57.18-.85.26-1.85.56-3.7 1.07-5.52 1.53-5.93 1.49-11.69 2.46-17.15 2.81.29-2.8.59-5.43.93-7.87s.7-4.68 1.08-6.69c8.27-43.06 28.9-84.09 82.33-84.09 49.47 0 70.9 35.32 80.35 74.81-3.3 8.79-11.19 18.15-19.82 20.89" class="secondary" style="display:block" transform="translate(212.885 95.496)"/><g fill="#B26836" style="mix-blend-mode:multiply;display:block"><path d="M28.08 6.215c-2.78 9.2-10.05 18.65-19.16 21.71-.11.03-.22.07-.32.1 0 0-3.61-10.05-10.01-22.09-6.39-12.02-15.55-26.02-26.67-33.96l.1.06c.01 0 .01 0 .01.01l.12.07c.67.37 2.6 1.48 5.23 3.19l.12.08c6.86 4.45 18.28 12.8 24.29 22.35 8.95 14.22 16.13 17.19 26.29 8.48" class="secondary" opacity=".5" style="mix-blend-mode:multiply" transform="translate(266.539 111.845)"/><path d="M238.459 83.81c-11.62 27.29-49.83 43.67-84.65 54.41-.28.09-.57.18-.85.26-1.85.56-3.7 1.07-5.52 1.53-5.93 1.49-11.69 2.46-17.15 2.81.57-5.6 1.24-10.53 2.01-14.56 60.37-1.11 106.16-44.45 106.16-44.45" class="secondary" opacity=".5"/></g><path fill="none" stroke="#121331" stroke-linecap="round" stroke-linejoin="round" stroke-width="7" d="M59.048-3.115 36.152.375a240 240 0 0 1-72.304 0l-22.896-3.49" class="primary" style="display:block" transform="translate(214.958 181.575)"/><path fill="none" stroke="#121331" stroke-linecap="round" stroke-linejoin="round" stroke-width="7" d="m7.815 23.31 27.37 80.38" class="primary" style="display:block" transform="translate(107.253 268.373)"/><g mask="url(#n)" style="display:block"><path fill="none" stroke="#121331" stroke-linecap="round" stroke-linejoin="round" stroke-width="7" d="M127.36 255.68c-.13-38.79.51-99.33 5.36-124.59C140.99 88.03 161.627 47 215.056 47c53.317 0 74.064 41.03 82.334 84.09 4.86 25.28 5.5 85.88 5.36 124.67" class="primary"/></g><g mask="url(#o)" style="display:block"><path fill="none" stroke="#121331" stroke-linecap="round" stroke-linejoin="round" stroke-width="7" d="M248.87 221.345v18.94c0 18.63-33.88 48.87-33.88 48.87s-33.87-30.24-33.87-48.87v-18.93" class="primary"/></g><path fill="none" stroke="#121331" stroke-linecap="round" stroke-linejoin="round" stroke-width="7" d="M33.88 26.69h7.62c45.84 0 83 37.16 83 83v27.76c0 7.62-5.71 14.03-13.28 14.9l-29.04 3.36a85.3 85.3 0 0 0-23.07 6.03c-18.91 7.91-39 11.88-59.11 11.92h-.3c-20.1 0-40.2-3.93-59.12-11.8l-.2-.08c-7.69-3.2-15.79-5.3-24.07-6.26l-27.53-3.17c-7.57-.87-13.28-7.28-13.28-14.9v-27.76c0-45.84 37.16-83 83-83h7.63" class="primary" style="display:block" transform="translate(215 215)"/><g style="display:block"><path fill="#EBE6EF" d="m277.707 373.231 4.339 19.503c2.871 8.344 14.71 8.231 17.421-.166l12.815-51.826c4.766-10.958-1.186-23.609-12.667-26.923-4.264-1.231-8.84-.97-12.897.832a35 35 0 0 1-3.655 1.359 28.7 28.7 0 0 1-17.314 0 35 35 0 0 1-3.655-1.359c-4.057-1.802-8.633-2.063-12.897-.832-11.481 3.314-17.433 15.965-12.667 26.923l12.815 51.826c2.711 8.397 14.55 8.51 17.421.166l4.339-19.503c.785-3.529 5.817-3.529 6.602 0" class="senary"/><path fill="#EBE6EF" d="m277.707 373.231 4.339 19.503c2.871 8.344 14.71 8.231 17.421-.166l12.815-51.826c4.766-10.958-1.186-23.609-12.667-26.923-4.264-1.231-8.84-.97-12.897.832a35 35 0 0 1-3.655 1.359 28.7 28.7 0 0 1-17.314 0 35 35 0 0 1-3.655-1.359c-4.057-1.802-8.633-2.063-12.897-.832-11.481 3.314-17.433 15.965-12.667 26.923l12.815 51.826c2.711 8.397 14.55 8.51 17.421.166l4.339-19.503c.785-3.529 5.817-3.529 6.602 0" class="senary"/><path fill="none" stroke="#121331" stroke-linecap="round" stroke-linejoin="round" stroke-width="7" d="m277.707 373.231 4.339 19.503c2.871 8.344 14.71 8.231 17.421-.166l12.815-51.826c4.766-10.958-1.186-23.609-12.667-26.923q0 0 0 0c-4.264-1.231-8.84-.97-12.897.832a35 35 0 0 1-3.655 1.359 28.7 28.7 0 0 1-17.314 0 35 35 0 0 1-3.655-1.359c-4.057-1.802-8.633-2.063-12.897-.832q0 0 0 0c-11.481 3.314-17.433 15.965-12.667 26.923l12.815 51.826c2.711 8.397 14.55 8.51 17.421.166l4.339-19.503c.785-3.529 5.817-3.529 6.602 0" class="primary"/></g><g style="display:block"><path fill="#4BB3FD" d="M82.503 268.373c0 13.669 11.081 24.75 24.75 24.75s24.75-11.081 24.75-24.75-11.081-24.75-24.75-24.75-24.75 11.081-24.75 24.75" class="tertiary"/><path fill="#4BB3FD" d="M82.503 268.373c0 13.669 11.081 24.75 24.75 24.75s24.75-11.081 24.75-24.75-11.081-24.75-24.75-24.75-24.75 11.081-24.75 24.75" class="tertiary"/><path fill="none" stroke="#121331" stroke-linecap="round" stroke-linejoin="round" stroke-width="7" d="M82.503 268.373c0 13.669 11.081 24.75 24.75 24.75s24.75-11.081 24.75-24.75-11.081-24.75-24.75-24.75-24.75 11.081-24.75 24.75" class="primary"/></g><path fill="none" stroke="#121331" stroke-linecap="round" stroke-linejoin="round" stroke-width="7" d="m60.904-71.581-1.33 32.044C58.458-7.442 32.115 18 0 18q0 0 0 0c-32.115 0-58.458-25.442-59.574-57.537l-1.07-33.812" class="primary" style="display:block" transform="translate(215 215)"/><path fill="none" stroke="#121331" stroke-linecap="round" stroke-linejoin="round" stroke-width="7" d="M-82.175 29.505c5.46-.35 72.29-10.651 108.17-59.01 22.25 15.85 36.703 56.064 36.703 56.064 9.258-2.945 16.67-12.513 19.477-21.814" class="primary" style="display:block" transform="translate(212.885 116.145)"/></g><g clip-path="url(#p)" style="display:none"><g style="display:none"><path class="secondary"/><path fill="none" class="primary"/></g><path class="secondary" style="display:none"/><g mask="url(#q)" style="mix-blend-mode:multiply;display:none"><path class="secondary"/></g><path fill="none" class="primary" style="display:none"/><path class="quinary" style="display:none"/><g mask="url(#r)" style="mix-blend-mode:multiply;display:none"><path class="quinary"/></g><g style="display:none"><path class="quaternary"/><path fill="none" class="primary"/></g><g style="mix-blend-mode:multiply;display:none"><path class="quaternary" style="mix-blend-mode:multiply"/></g><g fill="none" style="display:none"><path class="primary"/><path class="primary"/></g><g style="display:none"><path class="quaternary"/><path fill="none" class="primary"/></g><g style="display:none"><path class="tertiary"/><path class="tertiary" style="mix-blend-mode:multiply"/></g><path class="secondary" style="display:none"/><g style="mix-blend-mode:multiply;display:none"><path class="secondary" style="mix-blend-mode:multiply"/><path class="secondary"/></g><g fill="none" style="display:none"><path class="primary"/><path class="primary"/></g><g fill="none" style="display:none"><path class="primary"/><path class="primary"/><path class="primary"/></g><g style="display:none"><path class="senary"/><path fill="none" class="primary"/></g><g fill="none" style="display:none"><path class="primary"/><path class="primary" style="mix-blend-mode:multiply"/></g><g style="display:none"><path class="tertiary"/><path fill="none" class="primary"/></g></g></g></svg>